M48
; DRILL file {KiCad (5.1.9)-1} date 05/29/21 09:03:48
; FORMAT={-:-/ absolute / metric / decimal}
; #@! TF.CreationDate,2021-05-29T09:03:48-04:00
; #@! TF.GenerationSoftware,Kicad,Pcbnew,(5.1.9)-1
FMAT,2
METRIC
T1C0.800
T2C1.000
T3C1.500
T4C2.200
%
G90
G05
T1
X38.1Y27.86
X38.1Y22.86
X38.1Y13.97
X38.1Y11.97
X38.1Y9.97
T2
X4.49Y39.05
X4.49Y36.51
X4.49Y33.97
X4.49Y31.43
X4.49Y28.89
X4.49Y26.35
X4.49Y23.81
X4.49Y21.27
X4.49Y18.73
X4.49Y16.19
X4.49Y13.65
X4.49Y11.11
X7.03Y39.05
X7.03Y36.51
X7.03Y33.97
X7.03Y31.43
X7.03Y28.89
X7.03Y26.35
X7.03Y23.81
X7.03Y21.27
X7.03Y18.73
X7.03Y16.19
X7.03Y13.65
X7.03Y11.11
X16.42Y40.74
X16.42Y38.2
X16.42Y35.66
X16.42Y33.12
X16.42Y30.58
X16.42Y28.04
X16.42Y25.5
X16.42Y22.96
X16.42Y20.42
X16.42Y17.88
X16.42Y15.34
X16.42Y12.8
X16.42Y10.26
X16.42Y7.72
X16.42Y5.18
X31.66Y40.74
X31.66Y38.2
X31.66Y35.66
X31.66Y33.12
X31.66Y30.58
X31.66Y28.04
X31.66Y25.5
X31.66Y22.96
X31.66Y20.42
X31.66Y17.88
X31.66Y15.34
X31.66Y12.8
X31.66Y10.26
X31.66Y7.72
X31.66Y5.18
T3
X38.1Y16.07
X38.1Y7.87
T4
X2.54Y45.72
X2.54Y2.54
X40.64Y45.72
X40.64Y2.54
T0
M30
